<svg width="15" height="15" viewBox="0 0 15 15" fill="none" xmlns="http://www.w3.org/2000/svg">
  <circle cx="7.5" cy="7.5" r="6.5" stroke="currentColor" fill="none" />
  <path
    d="M10.2816 5.03157C10.5062 4.80702 10.5062 4.44295 10.2816 4.2184C10.0571 3.99385 9.693 3.99385 9.4685 4.2184L7.50005 6.18682L5.53164 4.2184C5.30708 3.99385 4.94301 3.99385 4.71846 4.2184C4.49391 4.44295 4.49391 4.80702 4.71846 5.03157L6.68688 6.99999L4.71846 8.9684C4.49391 9.193 4.49391 9.557 4.71846 9.7816C4.94301 10.0061 5.30708 10.0061 5.53164 9.7816L7.50005 7.81316L9.4685 9.7816C9.693 10.0061 10.0571 10.0061 10.2816 9.7816C10.5062 9.557 10.5062 9.193 10.2816 8.9684L8.31322 6.99999L10.2816 5.03157Z"
    fill="currentColor"
  />
</svg>
