<?xml version="1.0" standalone="no"?><!DOCTYPE svg PUBLIC "-//W3C//DTD SVG 1.1//EN" "http://www.w3.org/Graphics/SVG/1.1/DTD/svg11.dtd"><svg t="1747496140329" class="icon" viewBox="0 0 1024 1024" version="1.1" xmlns="http://www.w3.org/2000/svg" p-id="7610" xmlns:xlink="http://www.w3.org/1999/xlink" width="64" height="64"><path d="M923.2 141.6c-14-6.1-30.3-10-47.4-10.7-55.8-9.7-131.4 5.2-191.4 37.6 17.7-43.7-49.7-24.5-75.3-17.8-82.5 21.6-156.5 60.6-222.6 113.9 5.8-37.1-40.6-15.4-73.8 12.3-65.5 54.9-117.6 120.4-149.4 199.6-28.3 70.6-28.1 142.1-2.7 208.6 85.9-95.8 167.6-187.4 272.8-279.5C551.2 302.4 691.9 223 773.5 215.9 465.8 372.6 262.2 631.5 64.1 896h343.1v-13.3H100.3c5.8-2.6 10.9-5.9 15.9-11.5C139 846 157.8 817 182 792.9c30.5-30.2 32.3-27.7 58.5-28.4 51-1.3 102.6-5.1 152.6-14.4 106.6-19.7 197.5-68.8 267-153.4 17.3-21.1 34.2-57.1-10.7-55.6 15.8-7.5 27.1-12.1 37.5-18 81.6-45.9 157.3-98.6 205.3-181.7 13-22.4 27.7-65.3-16-57 24.1-23.8 47.9-43.3 66.9-66.8 28.3-34.7 20.9-58.8-19.9-76z" p-id="7611" fill="#4A90E2"></path></svg>